<svg xmlns="http://www.w3.org/2000/svg" xmlns:xlink="http://www.w3.org/1999/xlink" width="500" zoomAndPan="magnify" viewBox="0 0 375 374.999991" height="500" preserveAspectRatio="xMidYMid meet" version="1.0"><defs><clipPath id="16e47e112d"><path d="M 13.863281 15.710938 L 358.113281 15.710938 L 358.113281 359.960938 L 13.863281 359.960938 Z M 13.863281 15.710938 " clip-rule="nonzero"/></clipPath></defs><g clip-path="url(#16e47e112d)"><path fill="#000000" d="M 185.984375 15.710938 C 281.046875 15.710938 358.109375 92.773438 358.109375 187.832031 C 358.109375 282.894531 281.046875 359.957031 185.984375 359.957031 C 90.925781 359.957031 13.859375 282.894531 13.859375 187.832031 C 13.859375 92.773438 90.925781 15.710938 185.984375 15.710938 Z M 102.28125 146.339844 C 103.15625 159.605469 106.59375 169.199219 111.140625 179.894531 C 121.039062 203.191406 162.667969 242.199219 184.992188 255.398438 C 199.84375 264.1875 225.050781 274.160156 242.816406 267.933594 C 252.363281 264.585938 260.984375 257.261719 266.105469 248.734375 C 272.625 237.867188 269.679688 234.578125 263.089844 227.300781 C 258.015625 221.691406 251.988281 217.300781 246.03125 212.671875 L 239.703125 208.199219 C 235.578125 205.4375 231.089844 201.257812 224.535156 204.34375 C 220.164062 206.398438 218.066406 211.152344 214.820312 216 C 209.484375 223.96875 209.84375 225.914062 203.480469 222.128906 C 192.984375 215.890625 152.179688 182.679688 149.011719 169.722656 C 148.304688 166.820312 151.300781 165.394531 153.4375 163.765625 C 155.910156 161.882812 164.050781 156.050781 165.558594 154.523438 C 176.472656 143.5 150.484375 117.160156 142.445312 110.097656 C 137.800781 106.011719 134.023438 104.164062 126.8125 107.566406 C 120.710938 110.449219 115.988281 114.671875 112.0625 119.339844 C 105.882812 126.679688 101.609375 136.121094 102.28125 146.339844 Z M 186.078125 161.179688 C 187.46875 172.128906 201.421875 164.960938 204.492188 179.640625 C 205.171875 182.886719 205.792969 184.058594 207.746094 185.808594 C 213.722656 191.15625 223.847656 186.207031 222.578125 177.492188 C 221.011719 166.722656 214.65625 159.328125 207.96875 155.125 C 204.933594 153.214844 198.457031 150.222656 193.972656 150.714844 C 189.144531 151.242188 185.375 155.628906 186.078125 161.179688 Z M 186.632812 133.289062 C 187.296875 137.367188 190.34375 140.65625 194.65625 141.128906 C 200.382812 141.753906 202.929688 141.449219 208.261719 143.457031 C 216.109375 146.410156 222.054688 151.574219 225.917969 157.378906 C 233.707031 169.078125 230.441406 176.820312 233.175781 182 C 237.070312 189.375 250.460938 188.164062 250.101562 176.261719 C 249.796875 166.089844 247.316406 158.664062 243.300781 151.097656 C 236.070312 137.464844 222.125 127.410156 206.792969 124.144531 C 203.324219 123.40625 195.648438 122.3125 192.507812 123.589844 C 188.578125 125.183594 185.949219 129.109375 186.632812 133.289062 Z M 186.632812 133.289062 " fill-opacity="1" fill-rule="evenodd"/></g><path fill="#f5424a" d="M 187.503906 21.007812 C 95.699219 21.007812 21.011719 95.695312 21.011719 187.5 C 21.011719 279.304688 95.699219 353.992188 187.503906 353.992188 C 279.3125 353.992188 353.996094 279.304688 353.996094 187.5 C 353.996094 95.695312 279.3125 21.007812 187.503906 21.007812 Z M 187.503906 375.003906 C 162.195312 375.003906 137.640625 370.042969 114.515625 360.265625 C 92.1875 350.820312 72.136719 337.300781 54.917969 320.085938 C 37.703125 302.871094 24.183594 282.816406 14.738281 260.488281 C 4.957031 237.363281 0 212.808594 0 187.5 C 0 162.191406 4.957031 137.636719 14.738281 114.511719 C 24.183594 92.179688 37.703125 72.132812 54.917969 54.914062 C 72.136719 37.699219 92.1875 24.179688 114.515625 14.734375 C 137.640625 4.957031 162.195312 -0.00390625 187.503906 -0.00390625 C 212.8125 -0.00390625 237.367188 4.957031 260.496094 14.734375 C 282.820312 24.179688 302.875 37.699219 320.089844 54.914062 C 337.308594 72.132812 350.824219 92.179688 360.269531 114.511719 C 370.050781 137.636719 375.011719 162.191406 375.011719 187.5 C 375.011719 212.808594 370.050781 237.363281 360.269531 260.488281 C 350.824219 282.816406 337.308594 302.871094 320.089844 320.085938 C 302.875 337.300781 282.820312 350.820312 260.496094 360.265625 C 237.367188 370.042969 212.8125 375.003906 187.503906 375.003906 " fill-opacity="1" fill-rule="nonzero"/><path fill="#f5424a" d="M 279.324219 339.6875 L 76.472656 49.332031 L 93.695312 37.296875 L 296.546875 327.65625 L 279.324219 339.6875 " fill-opacity="1" fill-rule="nonzero"/></svg>