<svg xmlns="http://www.w3.org/2000/svg" xmlns:xlink="http://www.w3.org/1999/xlink" width="500" zoomAndPan="magnify" viewBox="0 0 375 374.999991" height="500" preserveAspectRatio="xMidYMid meet" version="1.0"><defs><clipPath id="f876a96c7c"><path d="M 194 13.359375 L 208 13.359375 L 208 28 L 194 28 Z M 194 13.359375 " clip-rule="nonzero"/></clipPath><clipPath id="c9be74bd6e"><path d="M 27 13.359375 L 375 13.359375 L 375 361.359375 L 27 361.359375 Z M 27 13.359375 " clip-rule="nonzero"/></clipPath><clipPath id="fd30aa3fca"><path d="M 43.535156 251.152344 L 54.640625 251.152344 L 54.640625 262.257812 L 43.535156 262.257812 Z M 43.535156 251.152344 " clip-rule="nonzero"/></clipPath><clipPath id="18f4dd9dc8"><path d="M 49.089844 251.152344 C 46.019531 251.152344 43.535156 253.640625 43.535156 256.707031 C 43.535156 259.773438 46.019531 262.257812 49.089844 262.257812 C 52.15625 262.257812 54.640625 259.773438 54.640625 256.707031 C 54.640625 253.640625 52.15625 251.152344 49.089844 251.152344 Z M 49.089844 251.152344 " clip-rule="nonzero"/></clipPath></defs><g clip-path="url(#f876a96c7c)"><path fill="#000000" d="M 207.886719 27.0625 L 194.441406 27.0625 L 194.441406 13.703125 L 207.808594 13.703125 L 207.886719 27.0625 " fill-opacity="1" fill-rule="nonzero"/></g><path fill="#000000" d="M 163.003906 31.261719 L 160.808594 18.085938 L 173.839844 15.921875 L 176.421875 28.703125 Z M 133.132812 41.621094 L 128.613281 29.042969 L 141.042969 24.609375 L 145.875 36.6875 L 139.425781 39.375 Z M 107.253906 57.925781 L 98.898438 47.488281 L 105.035156 42.714844 L 110.804688 39.347656 L 117.542969 50.882812 L 112.113281 54.039062 Z M 84.042969 78.71875 L 73.597656 70.371094 L 78.609375 64.265625 L 83.597656 59.804688 L 92.527344 69.746094 L 87.90625 73.894531 Z M 64.902344 103.660156 L 53.152344 97.269531 L 56.886719 90.566406 L 60.828125 85.164062 L 71.613281 93.042969 L 67.90625 98.15625 Z M 51.195312 131.789062 L 38.425781 127.875 L 40.855469 120.332031 L 43.832031 114.359375 L 55.789062 120.332031 L 53.023438 125.890625 Z M 41.714844 163.09375 L 28.921875 159.183594 L 30.75 153.207031 L 31.714844 147.023438 L 44.925781 149.058594 L 43.671875 156.730469 L 41.714844 163.09375 " fill-opacity="1" fill-rule="nonzero"/><path fill="#000000" d="M 40.777344 194.039062 L 27.40625 194.039062 L 27.40625 180.679688 L 40.777344 180.601562 L 40.777344 194.039062 " fill-opacity="1" fill-rule="nonzero"/><g clip-path="url(#c9be74bd6e)"><path fill="#000000" d="M 201.203125 361.015625 C 105.375 361.015625 27.40625 283.109375 27.40625 187.359375 C 27.40625 183.679688 30.410156 180.679688 34.089844 180.679688 C 37.773438 180.679688 40.777344 183.679688 40.777344 187.359375 C 40.777344 275.753906 112.738281 347.65625 201.203125 347.65625 C 289.667969 347.65625 361.632812 275.753906 361.632812 187.359375 C 361.632812 98.964844 289.667969 27.0625 201.203125 27.0625 C 197.523438 27.0625 194.519531 24.0625 194.519531 20.382812 C 194.519531 16.703125 197.523438 13.703125 201.203125 13.703125 C 297.03125 13.703125 375 91.609375 375 187.359375 C 375 283.109375 297.03125 361.015625 201.203125 361.015625 " fill-opacity="1" fill-rule="nonzero"/></g><path fill="#000000" d="M 60.828125 220.753906 C 59.105469 220.753906 57.410156 220.101562 56.101562 218.796875 L 34.089844 196.804688 L 12.078125 218.796875 C 9.46875 221.40625 5.238281 221.40625 2.625 218.796875 C 0.015625 216.1875 0.015625 211.960938 2.625 209.351562 L 29.363281 182.636719 C 31.976562 180.027344 36.207031 180.027344 38.816406 182.636719 L 65.554688 209.351562 C 68.167969 211.960938 68.167969 216.1875 65.554688 218.796875 C 64.25 220.101562 62.550781 220.753906 60.828125 220.753906 " fill-opacity="1" fill-rule="nonzero"/><path fill="#000000" d="M 207.886719 87.171875 L 194.519531 87.171875 L 194.519531 47.097656 L 207.886719 47.097656 L 207.886719 87.171875 " fill-opacity="1" fill-rule="nonzero"/><path fill="#000000" d="M 207.886719 327.621094 L 194.519531 327.621094 L 194.519531 287.546875 L 207.886719 287.546875 L 207.886719 327.621094 " fill-opacity="1" fill-rule="nonzero"/><path fill="#000000" d="M 265.59375 312.175781 L 245.539062 277.476562 L 257.132812 270.796875 L 277.1875 305.496094 L 265.59375 312.175781 " fill-opacity="1" fill-rule="nonzero"/><path fill="#000000" d="M 319.433594 263.28125 L 284.707031 243.246094 L 291.390625 231.660156 L 326.121094 251.699219 L 319.433594 263.28125 " fill-opacity="1" fill-rule="nonzero"/><path fill="#000000" d="M 100.9375 194.039062 L 60.828125 194.039062 L 60.828125 180.679688 L 100.9375 180.679688 L 100.9375 194.039062 " fill-opacity="1" fill-rule="nonzero"/><path fill="#000000" d="M 301.46875 194.039062 L 301.46875 180.679688 L 341.578125 180.679688 L 341.578125 194.039062 L 301.46875 194.039062 " fill-opacity="1" fill-rule="nonzero"/><path fill="#000000" d="M 82.996094 263.253906 L 76.3125 251.699219 L 111.039062 231.660156 L 117.726562 243.246094 L 82.996094 263.253906 " fill-opacity="1" fill-rule="nonzero"/><path fill="#000000" d="M 291.390625 143.03125 L 284.707031 131.472656 L 319.433594 111.4375 L 326.121094 122.996094 L 291.390625 143.03125 " fill-opacity="1" fill-rule="nonzero"/><path fill="#000000" d="M 136.8125 312.148438 L 125.246094 305.46875 L 145.300781 270.769531 L 156.867188 277.449219 L 136.8125 312.148438 " fill-opacity="1" fill-rule="nonzero"/><path fill="#000000" d="M 257.132812 103.921875 L 245.566406 97.242188 L 265.621094 62.542969 L 277.1875 69.222656 L 257.132812 103.921875 " fill-opacity="1" fill-rule="nonzero"/><path fill="#000000" d="M 159.136719 238.835938 L 149.6875 229.390625 L 194.519531 184.59375 L 194.519531 107.210938 L 207.886719 107.210938 L 207.886719 187.359375 C 207.886719 189.132812 207.183594 190.828125 205.929688 192.082031 L 159.136719 238.835938 " fill-opacity="1" fill-rule="nonzero"/><g clip-path="url(#fd30aa3fca)"><g clip-path="url(#18f4dd9dc8)"><path fill="#000000" d="M 43.535156 251.152344 L 54.640625 251.152344 L 54.640625 262.257812 L 43.535156 262.257812 Z M 43.535156 251.152344 " fill-opacity="1" fill-rule="nonzero"/></g></g></svg>