<svg xmlns="http://www.w3.org/2000/svg" xmlns:xlink="http://www.w3.org/1999/xlink" width="500" zoomAndPan="magnify" viewBox="0 0 375 374.999991" height="500" preserveAspectRatio="xMidYMid meet" version="1.0"><defs><clipPath id="2b101b1236"><path d="M 120.789062 135.273438 L 129.480469 135.273438 L 129.480469 143.964844 L 120.789062 143.964844 Z M 120.789062 135.273438 " clip-rule="nonzero"/></clipPath><clipPath id="826dee1f62"><path d="M 125.132812 135.273438 C 122.734375 135.273438 120.789062 137.21875 120.789062 139.617188 C 120.789062 142.019531 122.734375 143.964844 125.132812 143.964844 C 127.535156 143.964844 129.480469 142.019531 129.480469 139.617188 C 129.480469 137.21875 127.535156 135.273438 125.132812 135.273438 Z M 125.132812 135.273438 " clip-rule="nonzero"/></clipPath></defs><path fill="#000000" d="M 114.304688 283.511719 C 111.933594 283.511719 109.996094 281.574219 109.996094 279.203125 L 109.996094 261.746094 L 45.339844 261.746094 C 25.082031 261.746094 10.640625 253.773438 5.46875 239.546875 C 0.0820312 224.675781 7.191406 206.359375 23.355469 192.78125 L 92.539062 135.667969 L 92.539062 94.503906 C 92.539062 85.023438 100.082031 77.476562 109.5625 77.476562 C 119.046875 77.476562 126.804688 85.023438 126.804688 94.503906 L 126.804688 163.683594 C 126.804688 164.761719 126.375 165.839844 125.726562 166.703125 C 125.726562 166.703125 125.511719 166.703125 125.511719 166.917969 C 125.296875 166.917969 125.296875 167.132812 125.082031 167.132812 L 69.261719 210.238281 C 66.246094 212.609375 65.382812 214.546875 65.167969 215.410156 C 65.597656 215.625 66.460938 215.839844 68.613281 215.839844 C 75.511719 215.839844 82.625 216.054688 89.519531 216.054688 C 109.5625 216.488281 130.253906 216.703125 150.082031 214.332031 C 159.777344 213.253906 161.71875 210.453125 161.71875 206.140625 L 161.71875 195.582031 C 161.71875 193.210938 163.65625 191.273438 166.027344 191.273438 C 168.398438 191.273438 170.339844 193.210938 170.339844 195.582031 L 170.339844 206.140625 C 170.339844 220.582031 156.332031 222.304688 151.15625 222.953125 C 130.683594 225.324219 109.777344 225.109375 89.304688 224.675781 C 82.40625 224.675781 75.511719 224.460938 68.613281 224.460938 C 60.210938 224.460938 57.625 220.582031 56.976562 218.210938 C 55.253906 213.683594 58.054688 208.082031 63.875 203.554688 L 116.027344 163.253906 L 96.417969 143.640625 L 28.960938 199.460938 C 15.597656 210.667969 9.5625 225.109375 13.65625 236.746094 C 17.539062 247.089844 28.960938 253.125 45.339844 253.125 L 114.304688 253.125 C 116.675781 253.125 118.613281 255.066406 118.613281 257.433594 L 118.613281 279.203125 C 118.613281 281.574219 116.675781 283.511719 114.304688 283.511719 Z M 101.15625 135.882812 L 118.183594 153.339844 L 118.183594 94.503906 C 118.183594 89.761719 114.304688 86.097656 109.5625 86.097656 C 104.820312 86.097656 100.941406 89.761719 100.941406 94.503906 L 100.941406 135.882812 Z M 330.039062 261.746094 L 267.753906 261.746094 C 265.382812 261.746094 263.441406 259.804688 263.441406 257.433594 C 263.441406 255.066406 265.382812 253.125 267.753906 253.125 L 330.039062 253.125 C 346.417969 253.125 357.839844 247.089844 361.71875 236.746094 C 365.8125 225.109375 359.777344 210.667969 346.417969 199.460938 L 278.746094 143.640625 L 259.347656 163.253906 L 311.289062 203.554688 C 317.320312 208.082031 319.90625 213.683594 318.398438 218.210938 C 317.539062 220.582031 314.949219 224.460938 306.546875 224.460938 C 299.648438 224.460938 292.753906 224.675781 285.855469 224.675781 C 265.597656 225.109375 244.691406 225.324219 224.21875 222.953125 C 219.046875 222.304688 205.039062 220.582031 205.039062 206.140625 L 205.039062 193.640625 C 205.039062 191.273438 206.976562 189.332031 209.347656 189.332031 C 211.71875 189.332031 213.65625 191.273438 213.65625 193.640625 L 213.65625 206.140625 C 213.65625 210.453125 215.597656 213.253906 225.296875 214.332031 C 245.125 216.703125 265.8125 216.488281 285.640625 216.054688 C 292.753906 216.054688 299.648438 215.839844 306.546875 215.839844 C 308.699219 215.839844 309.777344 215.625 310.210938 215.410156 C 309.996094 214.546875 308.917969 212.609375 306.113281 210.238281 L 250.082031 167.132812 C 250.082031 167.132812 249.863281 166.917969 249.863281 166.917969 C 249.648438 166.703125 249.648438 166.703125 249.648438 166.703125 C 248.789062 165.839844 248.355469 164.761719 248.355469 163.683594 L 248.355469 94.503906 C 248.355469 85.023438 256.113281 77.476562 265.597656 77.476562 C 275.082031 77.476562 282.839844 85.023438 282.839844 94.503906 L 282.839844 135.667969 L 351.804688 192.78125 C 368.183594 206.359375 375.082031 224.675781 369.691406 239.546875 C 364.734375 253.773438 350.082031 261.746094 330.039062 261.746094 Z M 265.597656 86.097656 C 260.855469 86.097656 256.976562 89.761719 256.976562 94.503906 L 256.976562 153.339844 L 274.21875 135.882812 L 274.21875 94.503906 C 274.21875 89.761719 270.339844 86.097656 265.597656 86.097656 Z M 265.597656 86.097656 " fill-opacity="1" fill-rule="evenodd"/><path fill="#000000" d="M 186.503906 205.710938 L 185.640625 205.710938 C 173.140625 205.710938 161.070312 199.890625 151.589844 189.117188 C 141.460938 177.046875 136.503906 161.746094 138.441406 147.738281 C 138.441406 147.523438 138.441406 147.304688 138.441406 147.089844 C 138.65625 145.152344 135.640625 136.097656 132.839844 129.203125 C 132.40625 128.125 132.40625 126.832031 133.054688 125.539062 C 133.484375 124.460938 134.5625 123.816406 135.855469 123.382812 C 145.984375 120.582031 150.082031 97.738281 150.511719 89.976562 C 150.726562 88.253906 151.804688 86.960938 153.3125 86.316406 C 154.605469 85.667969 156.332031 85.882812 157.625 86.960938 C 157.839844 86.960938 178.3125 103.339844 206.976562 103.339844 C 213.441406 103.339844 220.125 102.476562 226.589844 100.753906 C 227.882812 100.324219 229.390625 100.753906 230.46875 101.617188 C 231.546875 102.695312 232.191406 103.988281 231.976562 105.496094 C 231.976562 105.710938 230.253906 121.011719 239.089844 126.183594 C 241.027344 127.261719 241.675781 129.632812 241.027344 131.574219 L 234.347656 148.816406 C 235.855469 162.390625 230.898438 177.476562 220.984375 188.902344 C 211.71875 199.675781 199.21875 205.710938 186.503906 205.710938 Z M 186.070312 197.089844 L 186.503906 197.089844 C 196.632812 197.089844 206.761719 192.132812 214.519531 183.296875 C 223.140625 173.382812 227.234375 160.453125 225.511719 148.816406 C 225.511719 148.167969 225.511719 147.304688 225.941406 146.660156 L 231.761719 131.574219 C 225.082031 125.753906 223.355469 116.488281 223.140625 110.453125 C 217.753906 111.53125 212.363281 111.960938 206.976562 111.960938 C 184.5625 111.960938 167.105469 103.339844 158.269531 97.738281 C 156.761719 107.433594 152.449219 123.597656 142.320312 129.847656 C 145.125 137.175781 147.710938 145.152344 146.847656 149.03125 C 145.339844 160.453125 149.648438 173.597656 158.269531 183.296875 C 165.8125 192.347656 175.726562 197.089844 185.640625 197.089844 Z M 186.070312 197.089844 " fill-opacity="1" fill-rule="evenodd"/><path fill="#000000" d="M 122.496094 97.089844 C 120.125 97.089844 118.183594 95.152344 118.183594 92.78125 L 118.183594 90.625 C 118.183594 89.761719 122.710938 31.574219 184.777344 31.574219 C 186.503906 31.574219 188.011719 32.652344 188.65625 34.375 C 189.304688 36.097656 188.875 38.039062 187.582031 39.117188 C 187.582031 39.117188 181.976562 44.289062 181.113281 50.109375 C 213.011719 45.796875 258.054688 60.882812 267.105469 80.066406 C 268.183594 82.21875 267.105469 84.804688 264.949219 85.882812 C 263.011719 86.746094 260.425781 85.882812 259.347656 83.726562 C 251.375 67.132812 205.683594 53.554688 177.882812 59.375 C 175.726562 59.804688 173.570312 58.511719 172.925781 56.359375 C 171.417969 50.324219 173.140625 44.933594 175.511719 40.839844 C 130.46875 46.011719 126.804688 88.902344 126.804688 90.839844 L 126.804688 92.78125 C 126.804688 95.152344 124.863281 97.089844 122.496094 97.089844 Z M 122.496094 97.089844 " fill-opacity="1" fill-rule="evenodd"/><path fill="#000000" d="M 200.941406 188.902344 L 172.925781 188.902344 C 169.046875 188.902344 165.8125 185.667969 165.8125 181.574219 L 165.8125 175.753906 C 165.8125 168.425781 171.632812 162.609375 178.960938 162.609375 L 194.90625 162.609375 C 202.234375 162.609375 208.054688 168.425781 208.054688 175.753906 L 208.054688 181.574219 C 208.054688 185.667969 204.820312 188.902344 200.941406 188.902344 Z M 174.433594 180.28125 L 199.433594 180.28125 L 199.433594 175.753906 C 199.433594 173.167969 197.496094 171.226562 194.90625 171.226562 L 178.960938 171.226562 C 176.375 171.226562 174.433594 173.167969 174.433594 175.753906 Z M 174.433594 180.28125 " fill-opacity="1" fill-rule="evenodd"/><path fill="#000000" d="M 174.863281 133.511719 C 173.355469 133.511719 171.847656 132.652344 170.984375 131.140625 C 170.339844 130.066406 169.261719 129.417969 167.96875 129.417969 C 166.675781 129.417969 165.382812 130.066406 164.734375 131.140625 C 163.65625 133.296875 161.070312 134.160156 159.132812 133.082031 C 156.976562 132.003906 156.113281 129.417969 157.191406 127.261719 C 159.132812 123.167969 163.441406 120.796875 167.96875 120.796875 C 172.496094 120.796875 176.589844 123.167969 178.746094 127.261719 C 179.820312 129.417969 178.960938 132.003906 176.804688 133.082031 C 176.15625 133.511719 175.511719 133.511719 174.863281 133.511719 Z M 174.863281 133.511719 " fill-opacity="1" fill-rule="evenodd"/><path fill="#000000" d="M 212.796875 133.511719 C 211.289062 133.511719 209.777344 132.652344 209.132812 131.140625 C 208.484375 130.066406 207.191406 129.417969 205.898438 129.417969 C 204.605469 129.417969 203.527344 130.066406 202.882812 131.140625 C 201.804688 133.296875 199.21875 134.160156 197.0625 133.082031 C 194.90625 132.003906 194.046875 129.417969 195.125 127.261719 C 197.277344 123.167969 201.375 120.796875 205.898438 120.796875 C 210.640625 120.796875 214.734375 123.167969 216.675781 127.261719 C 217.753906 129.417969 216.890625 132.003906 214.734375 133.082031 C 214.304688 133.511719 213.65625 133.511719 212.796875 133.511719 Z M 212.796875 133.511719 " fill-opacity="1" fill-rule="evenodd"/><path fill="#000000" d="M 189.949219 159.160156 C 188.875 159.160156 187.796875 158.726562 186.933594 157.867188 L 180.683594 151.617188 C 179.175781 149.890625 179.175781 147.304688 180.683594 145.582031 L 186.933594 139.332031 C 188.65625 137.609375 191.460938 137.609375 193.183594 139.332031 C 194.691406 141.054688 194.691406 143.859375 193.183594 145.367188 L 189.949219 148.597656 L 193.183594 151.832031 C 194.691406 153.554688 194.691406 156.140625 193.183594 157.867188 C 192.320312 158.726562 191.246094 159.160156 189.949219 159.160156 Z M 189.949219 159.160156 " fill-opacity="1" fill-rule="evenodd"/><path fill="#000000" d="M 187.582031 258.726562 C 165.167969 258.726562 146.847656 241.273438 145.984375 218.859375 C 145.984375 216.488281 147.710938 214.546875 150.082031 214.332031 C 152.449219 214.332031 154.605469 216.054688 154.605469 218.425781 C 155.253906 236.316406 169.90625 250.324219 187.582031 250.324219 C 205.46875 250.324219 219.90625 236.316406 220.769531 218.425781 C 220.769531 216.054688 222.710938 214.332031 225.082031 214.332031 C 227.449219 214.546875 229.390625 216.488281 229.390625 218.859375 C 228.3125 241.273438 209.996094 258.726562 187.582031 258.726562 Z M 187.582031 258.726562 " fill-opacity="1" fill-rule="evenodd"/><path fill="#000000" d="M 239.734375 167.347656 L 229.390625 167.347656 C 227.019531 167.347656 225.082031 165.410156 225.082031 163.039062 C 225.082031 160.667969 227.019531 158.726562 229.390625 158.726562 L 239.734375 158.726562 C 244.476562 158.726562 248.355469 154.847656 248.355469 149.890625 C 248.355469 145.152344 244.476562 141.273438 239.734375 141.273438 L 234.347656 141.273438 C 231.976562 141.273438 230.039062 139.332031 230.039062 136.960938 C 230.039062 134.589844 231.976562 132.652344 234.347656 132.652344 L 239.734375 132.652344 C 249.21875 132.652344 256.976562 140.410156 256.976562 149.890625 C 256.976562 159.589844 249.21875 167.347656 239.734375 167.347656 Z M 239.734375 167.347656 " fill-opacity="1" fill-rule="evenodd"/><path fill="#000000" d="M 143.183594 167.347656 L 135.640625 167.347656 C 125.941406 167.347656 118.183594 159.589844 118.183594 149.890625 C 118.183594 140.410156 125.941406 132.652344 135.640625 132.652344 L 140.382812 132.652344 C 142.753906 132.652344 144.691406 134.589844 144.691406 136.960938 C 144.691406 139.332031 142.753906 141.273438 140.382812 141.273438 L 135.640625 141.273438 C 130.683594 141.273438 126.804688 145.152344 126.804688 149.890625 C 126.804688 154.847656 130.683594 158.726562 135.640625 158.726562 L 143.183594 158.726562 C 145.554688 158.726562 147.496094 160.667969 147.496094 163.039062 C 147.496094 165.410156 145.554688 167.347656 143.183594 167.347656 Z M 143.183594 167.347656 " fill-opacity="1" fill-rule="evenodd"/><path fill="#000000" d="M 342.753906 362.175781 L 32.625 362.175781 C 22.710938 362.175781 14.949219 354.203125 14.949219 344.503906 L 14.949219 334.804688 C 14.949219 324.890625 22.710938 317.132812 32.625 317.132812 L 342.753906 317.132812 C 352.449219 317.132812 360.425781 324.890625 360.425781 334.804688 L 360.425781 344.503906 C 360.425781 354.203125 352.449219 362.175781 342.753906 362.175781 Z M 32.625 325.753906 C 27.667969 325.753906 23.570312 329.632812 23.570312 334.804688 L 23.570312 344.503906 C 23.570312 349.460938 27.667969 353.554688 32.625 353.554688 L 342.753906 353.554688 C 347.710938 353.554688 351.804688 349.460938 351.804688 344.503906 L 351.804688 334.804688 C 351.804688 329.632812 347.710938 325.753906 342.753906 325.753906 Z M 32.625 325.753906 " fill-opacity="1" fill-rule="evenodd"/><path fill="#000000" d="M 43.398438 325.753906 C 40.8125 325.753906 39.089844 323.816406 39.089844 321.445312 L 39.089844 279.203125 C 39.089844 276.832031 40.8125 274.890625 43.398438 274.890625 L 70.554688 274.890625 C 72.925781 274.890625 74.863281 276.832031 74.863281 279.203125 L 74.863281 298.816406 C 74.863281 301.183594 72.925781 303.125 70.554688 303.125 C 68.183594 303.125 66.246094 301.183594 66.246094 298.816406 L 66.246094 283.511719 L 47.710938 283.511719 L 47.710938 321.445312 C 47.710938 323.816406 45.769531 325.753906 43.398438 325.753906 Z M 43.398438 325.753906 " fill-opacity="1" fill-rule="evenodd"/><path fill="#000000" d="M 137.796875 325.753906 C 135.425781 325.753906 133.484375 323.816406 133.484375 321.445312 L 133.484375 303.125 L 66.246094 303.125 L 66.246094 321.445312 C 66.246094 323.816406 64.304688 325.753906 61.933594 325.753906 C 59.5625 325.753906 57.625 323.816406 57.625 321.445312 L 57.625 298.816406 C 57.625 296.445312 59.5625 294.503906 61.933594 294.503906 L 137.796875 294.503906 C 140.167969 294.503906 142.105469 296.445312 142.105469 298.816406 L 142.105469 321.445312 C 142.105469 323.816406 140.167969 325.753906 137.796875 325.753906 Z M 137.796875 325.753906 " fill-opacity="1" fill-rule="evenodd"/><path fill="#000000" d="M 125.941406 303.125 C 123.570312 303.125 121.632812 301.183594 121.632812 298.816406 L 121.632812 283.511719 L 102.882812 283.511719 L 102.882812 298.816406 C 102.882812 301.183594 100.941406 303.125 98.570312 303.125 C 96.199219 303.125 94.261719 301.183594 94.261719 298.816406 L 94.261719 279.203125 C 94.261719 276.832031 96.199219 274.890625 98.570312 274.890625 L 125.941406 274.890625 C 128.3125 274.890625 130.253906 276.832031 130.253906 279.203125 L 130.253906 298.816406 C 130.253906 301.183594 128.3125 303.125 125.941406 303.125 Z M 125.941406 303.125 " fill-opacity="1" fill-rule="evenodd"/><path fill="#000000" d="M 235.855469 325.753906 C 233.484375 325.753906 231.546875 323.816406 231.546875 321.445312 L 231.546875 282.867188 C 231.546875 280.496094 233.484375 278.554688 235.855469 278.554688 L 286.070312 278.554688 C 288.65625 278.554688 290.382812 280.496094 290.382812 282.867188 L 290.382812 301.183594 C 290.382812 303.554688 288.65625 305.496094 286.070312 305.496094 C 283.699219 305.496094 281.761719 303.554688 281.761719 301.183594 L 281.761719 287.175781 L 240.167969 287.175781 L 240.167969 321.445312 C 240.167969 323.816406 238.226562 325.753906 235.855469 325.753906 Z M 235.855469 325.753906 " fill-opacity="1" fill-rule="evenodd"/><path fill="#000000" d="M 328.746094 325.753906 C 326.375 325.753906 324.433594 323.816406 324.433594 321.445312 L 324.433594 305.496094 L 282.839844 305.496094 L 282.839844 321.445312 C 282.839844 323.816406 280.898438 325.753906 278.527344 325.753906 C 276.15625 325.753906 274.21875 323.816406 274.21875 321.445312 L 274.21875 301.183594 C 274.21875 298.816406 276.15625 296.875 278.527344 296.875 L 328.746094 296.875 C 331.113281 296.875 333.054688 298.816406 333.054688 301.183594 L 333.054688 321.445312 C 333.054688 323.816406 331.113281 325.753906 328.746094 325.753906 Z M 328.746094 325.753906 " fill-opacity="1" fill-rule="evenodd"/><path fill="#000000" d="M 267.753906 287.175781 L 244.476562 287.175781 C 242.105469 287.175781 240.167969 285.238281 240.167969 282.867188 L 240.167969 243.640625 C 240.167969 241.273438 242.105469 239.332031 244.476562 239.332031 L 267.753906 239.332031 C 270.125 239.332031 272.0625 241.273438 272.0625 243.640625 L 272.0625 282.867188 C 272.0625 285.238281 270.125 287.175781 267.753906 287.175781 Z M 248.789062 278.554688 L 263.441406 278.554688 L 263.441406 247.953125 L 248.789062 247.953125 Z M 248.789062 278.554688 " fill-opacity="1" fill-rule="evenodd"/><path fill="#000000" d="M 32.40625 195.152344 C 30.46875 195.152344 28.746094 194.074219 28.3125 192.132812 L 7.191406 113.253906 C 6.976562 112.175781 6.976562 110.882812 7.625 110.023438 C 8.269531 108.945312 9.132812 108.296875 10.210938 107.867188 L 74.648438 90.625 C 75.726562 90.410156 76.804688 90.625 77.882812 91.054688 C 78.746094 91.703125 79.605469 92.566406 79.820312 93.640625 L 92.96875 143.210938 C 93.613281 145.367188 92.320312 147.738281 89.949219 148.382812 C 87.796875 149.03125 85.425781 147.738281 84.777344 145.367188 L 72.710938 100.109375 L 16.675781 115.195312 L 36.71875 189.761719 C 37.148438 192.132812 35.855469 194.503906 33.484375 195.152344 C 33.269531 195.152344 32.839844 195.152344 32.40625 195.152344 Z M 32.40625 195.152344 " fill-opacity="1" fill-rule="evenodd"/><path fill="#000000" d="M 40.167969 150.96875 C 38.226562 150.96875 36.503906 149.675781 35.855469 147.738281 C 35.425781 145.367188 36.71875 142.996094 39.089844 142.566406 L 66.890625 135.023438 C 69.261719 134.375 71.632812 135.667969 72.277344 138.039062 C 72.710938 140.410156 71.417969 142.78125 69.046875 143.425781 L 41.246094 150.753906 C 40.8125 150.96875 40.382812 150.96875 40.167969 150.96875 Z M 40.167969 150.96875 " fill-opacity="1" fill-rule="evenodd"/><path fill="#000000" d="M 34.996094 131.789062 C 33.054688 131.789062 31.332031 130.496094 30.683594 128.554688 C 30.253906 126.183594 31.546875 123.816406 33.917969 123.167969 L 61.71875 115.625 C 64.089844 115.195312 66.460938 116.488281 67.105469 118.859375 C 67.753906 121.011719 66.246094 123.382812 64.089844 124.03125 L 36.070312 131.574219 C 35.640625 131.574219 35.210938 131.789062 34.996094 131.789062 Z M 34.996094 131.789062 " fill-opacity="1" fill-rule="evenodd"/><path fill="#000000" d="M 342.753906 195.152344 C 342.539062 195.152344 342.105469 195.152344 341.675781 195.152344 C 339.519531 194.503906 338.011719 192.132812 338.65625 189.761719 L 358.699219 115.195312 L 302.667969 100.109375 L 290.597656 145.367188 C 289.949219 147.738281 287.582031 149.03125 285.210938 148.382812 C 283.054688 147.738281 281.546875 145.367188 282.191406 143.210938 L 295.554688 93.640625 C 295.984375 91.488281 298.355469 90.195312 300.726562 90.625 L 365.167969 107.867188 C 367.320312 108.511719 368.832031 110.882812 368.183594 113.253906 L 347.0625 192.132812 C 346.417969 194.074219 344.691406 195.152344 342.753906 195.152344 Z M 342.753906 195.152344 " fill-opacity="1" fill-rule="evenodd"/><path fill="#000000" d="M 335.210938 150.96875 C 334.777344 150.96875 334.347656 150.96875 334.132812 150.753906 L 306.113281 143.425781 C 303.960938 142.78125 302.449219 140.410156 303.097656 138.039062 C 303.746094 135.667969 306.113281 134.375 308.484375 135.023438 L 336.289062 142.566406 C 338.65625 142.996094 339.949219 145.367188 339.304688 147.738281 C 338.875 149.675781 337.148438 150.96875 335.210938 150.96875 Z M 335.210938 150.96875 " fill-opacity="1" fill-rule="evenodd"/><path fill="#000000" d="M 340.382812 131.789062 C 339.949219 131.789062 339.519531 131.574219 339.304688 131.574219 L 311.289062 124.03125 C 308.917969 123.382812 307.625 121.011719 308.269531 118.859375 C 308.917969 116.488281 311.289062 115.195312 313.65625 115.625 L 341.460938 123.167969 C 343.832031 123.816406 345.125 126.183594 344.476562 128.554688 C 344.046875 130.496094 342.320312 131.789062 340.382812 131.789062 Z M 340.382812 131.789062 " fill-opacity="1" fill-rule="evenodd"/><path fill="#000000" d="M 76.589844 71.445312 C 65.8125 71.445312 57.191406 62.824219 57.191406 52.046875 C 57.191406 41.273438 65.8125 32.433594 76.589844 32.433594 C 87.363281 32.433594 96.199219 41.273438 96.199219 52.046875 C 96.199219 62.824219 87.363281 71.445312 76.589844 71.445312 Z M 76.589844 41.054688 C 70.554688 41.054688 65.8125 46.011719 65.8125 52.046875 C 65.8125 58.082031 70.554688 62.824219 76.589844 62.824219 C 82.625 62.824219 87.582031 58.082031 87.582031 52.046875 C 87.582031 46.011719 82.625 41.054688 76.589844 41.054688 Z M 76.589844 41.054688 " fill-opacity="1" fill-rule="evenodd"/><path fill="#000000" d="M 260.640625 51.832031 C 249.863281 51.832031 241.027344 42.996094 241.027344 32.21875 C 241.027344 21.445312 249.863281 12.824219 260.640625 12.824219 C 271.417969 12.824219 280.039062 21.445312 280.039062 32.21875 C 280.039062 42.996094 271.417969 51.832031 260.640625 51.832031 Z M 260.640625 21.445312 C 254.605469 21.445312 249.648438 26.183594 249.648438 32.21875 C 249.648438 38.253906 254.605469 43.210938 260.640625 43.210938 C 266.675781 43.210938 271.417969 38.253906 271.417969 32.21875 C 271.417969 26.183594 266.675781 21.445312 260.640625 21.445312 Z M 260.640625 21.445312 " fill-opacity="1" fill-rule="evenodd"/><g clip-path="url(#2b101b1236)"><g clip-path="url(#826dee1f62)"><path fill="#000000" d="M 120.789062 135.273438 L 129.480469 135.273438 L 129.480469 143.964844 L 120.789062 143.964844 Z M 120.789062 135.273438 " fill-opacity="1" fill-rule="nonzero"/></g></g></svg>